<svg width="23" height="18" viewBox="0 0 23 18" fill="none" xmlns="http://www.w3.org/2000/svg">
<g id="Share">
<path id="Vector" d="M22.23 7.60812C22.2262 7.68179 22.2159 7.75496 22.1992 7.82676C22.1496 8.00857 22.0343 8.16471 21.8764 8.26404L21.8303 8.29527L11.5301 15.0887C11.4148 15.1662 11.2807 15.2101 11.1424 15.2156C11.0042 15.2212 10.8671 15.188 10.7461 15.1199C10.6257 15.0514 10.5253 14.9517 10.4551 14.831C10.3849 14.7104 10.3474 14.573 10.3464 14.4328V10.9502C8.80904 10.6691 4.30462 10.4973 1.4759 17.1814C1.41598 17.3211 1.31707 17.44 1.19139 17.5232C1.06571 17.6065 0.918769 17.6505 0.768725 17.6499C0.716989 17.6532 0.665062 17.648 0.61499 17.6344C0.44043 17.6003 0.283213 17.5049 0.170811 17.3651C0.0584088 17.2252 -0.00203102 17.0496 5.21028e-05 16.869C5.21028e-05 11.9184 1.27605 8.31089 3.81267 6.15573C5.65186 4.6415 7.98349 3.88355 10.3464 4.03181V0.783457C10.3474 0.643282 10.3849 0.50588 10.4551 0.385196C10.5253 0.264513 10.6257 0.164844 10.7461 0.0963056C10.8671 0.0281889 11.0042 -0.0049166 11.1424 0.000590373C11.2807 0.00609734 11.4148 0.0500059 11.5301 0.12754L21.815 6.92097C21.8741 6.94428 21.9269 6.98179 21.9687 7.03029C22.0226 7.07466 22.0693 7.12736 22.1071 7.18646C22.1502 7.24754 22.1815 7.31641 22.1993 7.38939C22.216 7.46122 22.2262 7.53442 22.23 7.60812Z" fill="black"/>
</g>
</svg>
